<svg xmlns="http://www.w3.org/2000/svg">

  <symbol id="email-icon" viewBox="0 0 24 24">
    <path d="M2 4c-1.1 0-2 .9-2 2v12c0 1.1.9 2 2 2h20c1.1 0 2-.9 2-2V6c0-1.1-.9-2-2-2H2zm0 2h20v.01L12 13 2 6.01V6zm0 2.02L7.5 12 2 15.98V8.02zM22 8.02v7.96L16.5 12 22 8.02zM8.68 13L12 15.47 15.32 13 22 18H2l6.68-5z"/>
  </symbol>

  <symbol id="password-icon" viewBox="0 0 24 24">
    <path d="M12 2C8.69 2 6 4.69 6 8v4H5c-1.1 0-2 .9-2 2v6c0 1.1.9 2 2 2h14c1.1 0 2-.9 2-2v-6c0-1.1-.9-2-2-2h-1V8c0-3.31-2.69-6-6-6zm0 2c2.21 0 4 1.79 4 4v4H8V8c0-2.21 1.79-4 4-4zm-1 10h2v4h-2v-4z" />
  </symbol>

  <symbol id="eye-icon" viewBox="0 0 576 512">
    <path d="M288 80c-65.2 0-118.8 29.6-159.9 67.7C89.6 183.5 63 226 49.4 256c13.6 30 40.2 72.5 78.6 108.3C169.2 402.4 222.8 432 288 432s118.8-29.6 159.9-67.7C486.4 328.5 513 286 526.6 256c-13.6-30-40.2-72.5-78.6-108.3C406.8 109.6 353.2 80 288 80zM95.4 112.6C142.5 68.8 207.2 32 288 32s145.5 36.8 192.6 80.6c46.8 43.5 78.1 95.4 93 131.1c3.3 7.9 3.3 16.7 0 24.6c-14.9 35.7-46.2 87.7-93 131.1C433.5 443.2 368.8 480 288 480s-145.5-36.8-192.6-80.6C48.6 356 17.3 304 2.5 268.3c-3.3-7.9-3.3-16.7 0-24.6C17.3 208 48.6 156 95.4 112.6zM288 336c44.2 0 80-35.8 80-80s-35.8-80-80-80c-.7 0-1.3 0-2 0c1.3 5.1 2 10.5 2 16c0 35.3-28.7 64-64 64c-5.5 0-10.9-.7-16-2c0 .7 0 1.3 0 2c0 44.2 35.8 80 80 80zm0-208a128 128 0 1 1 0 256 128 128 0 1 1 0-256z"/>
  </symbol>

  <symbol id="eye-off-icon" viewBox="0 0 640 512">
    <path d="M38.8 5.1C28.4-3.1 13.3-1.2 5.1 9.2S-1.2 34.7 9.2 42.9l592 464c10.4 8.2 25.5 6.3 33.7-4.1s6.3-25.5-4.1-33.7L525.6 386.7c39.6-40.6 66.4-86.1 79.9-118.4c3.3-7.9 3.3-16.7 0-24.6c-14.9-35.7-46.2-87.7-93-131.1C465.5 68.8 400.8 32 320 32c-68.2 0-125 26.3-169.3 60.8L38.8 5.1zm151 118.3C226 97.7 269.5 80 320 80c65.2 0 118.8 29.6 159.9 67.7C518.4 183.5 545 226 558.6 256c-12.6 28-36.6 66.8-70.9 100.9l-53.8-42.2c9.1-17.6 14.2-37.5 14.2-58.7c0-70.7-57.3-128-128-128c-32.2 0-61.7 11.9-84.2 31.5l-46.1-36.1zM394.9 284.2l-81.5-63.9c4.2-8.5 6.6-18.2 6.6-28.3c0-5.5-.7-10.9-2-16c.7 0 1.3 0 2 0c44.2 0 80 35.8 80 80c0 9.9-1.8 19.4-5.1 28.2zm9.4 130.3C378.8 425.4 350.7 432 320 432c-65.2 0-118.8-29.6-159.9-67.7C121.6 328.5 95 286 81.4 256c8.3-18.4 21.5-41.5 39.4-64.8L83.1 161.5C60.3 191.2 44 220.8 34.5 243.7c-3.3 7.9-3.3 16.7 0 24.6c14.9 35.7 46.2 87.7 93 131.1C174.5 443.2 239.2 480 320 480c47.8 0 89.9-12.9 126.2-32.5l-41.9-33zM192 256c0 70.7 57.3 128 128 128c13.3 0 26.1-2 38.2-5.8L302 334c-23.5-5.4-43.1-21.2-53.7-42.3l-56.1-44.2c-.2 2.8-.3 5.6-.3 8.5z"/>
  </symbol>

  <symbol id="sparkle-icon" viewBox="0 0 24 24">
    <path d="M12 2L14 8L20 10L14 12L12 18L10 12L4 10L10 8L12 2Z"/>
  </symbol>

  <symbol id="edit-icon" viewBox="0 0 512 512">
    <path d="M471.6 21.7c-21.9-21.9-57.3-21.9-79.2 0L362.3 51.7l97.9 97.9 30.1-30.1c21.9-21.9 21.9-57.3 0-79.2L471.6 21.7zm-299.2 220c-6.1 6.1-10.8 13.6-13.5 21.9l-29.6 88.8c-2.9 8.6-.6 18.1 5.8 24.6s15.9 8.7 24.6 5.8l88.8-29.6c8.2-2.7 15.7-7.4 21.9-13.5L437.7 172.3 339.7 74.3 172.4 241.7zM96 64C43 64 0 107 0 160L0 416c0 53 43 96 96 96l256 0c53 0 96-43 96-96l0-96c0-17.7-14.3-32-32-32s-32 14.3-32 32l0 96c0 17.7-14.3 32-32 32L96 448c-17.7 0-32-14.3-32-32l0-256c0-17.7 14.3-32 32-32l96 0c17.7 0 32-14.3 32-32s-14.3-32-32-32L96 64z"/>
  </symbol>

  <symbol id="delete-icon" viewBox="0 0 448 512">
    <path d="M135.2 17.7L128 32 32 32C14.3 32 0 46.3 0 64S14.3 96 32 96l384 0c17.7 0 32-14.3 32-32s-14.3-32-32-32l-96 0-7.2-14.3C307.4 6.8 296.3 0 284.2 0L163.8 0c-12.1 0-23.2 6.8-28.6 17.7zM416 128L32 128 53.2 467c1.6 25.3 22.6 45 47.9 45l245.8 0c25.3 0 46.3-19.7 47.9-45L416 128z"/>
  </symbol>

  <symbol id="user-icon" viewBox="0 0 448 550">
    <circle cx="224" cy="200" r="80" fill="currentColor"/>
    <path d="M49.3 480h349.5c-8.9-73.3-63.3-130-129-130h-91.4c-65.7 0-120.1 56.7-129 130z" fill="currentColor"/>
  </symbol>

  <symbol id="sun-icon" viewBox="0 0 24 24">
    <circle cx="12" cy="12" r="6" fill="currentColor"/>
    <path d="M12 2v2M12 20v2M4.22 4.22l1.42 1.42M18.36 18.36l1.42 1.42M2 12h2M20 12h2M4.22 19.78l1.42-1.42M18.36 5.64l1.42-1.42" stroke="currentColor" stroke-width="2" stroke-linecap="round"/>
  </symbol>

  <symbol id="moon-icon" viewBox="0 0 24 24">
    <path d="M14.5 2C9.25 2 5 6.25 5 11.5S9.25 21 14.5 21c3.25 0 6.2-1.55 8.05-4-1.15.4-2.35.6-3.55.6-5.25 0-9.5-4.25-9.5-9.5 0-1.2.2-2.4.6-3.55C8.95 3.3 11.65 2 14.5 2z" fill="currentColor"/>
  </symbol>

  <symbol id="prev-icon" viewBox="0 0 24 24">
    <path d="M14 18l-6-6 6-6" fill="none" stroke="currentColor" stroke-width="2" stroke-linecap="round" stroke-linejoin="round"/>
  </symbol>

  <symbol id="next-icon" viewBox="0 0 24 24">
    <path d="M10 6l6 6-6 6" fill="none" stroke="currentColor" stroke-width="2" stroke-linecap="round" stroke-linejoin="round"/>
  </symbol>

  <symbol id="history-icon" viewBox="0 0 24 24">
    <path d="M12 8v4l3 3M12 2a10 10 0 1 0 10 10h-2a8 8 0 1 1-8-8V2z" fill="none" stroke="currentColor" stroke-width="2" stroke-linecap="round" stroke-linejoin="round"/>
  </symbol>

  <symbol id="up-arrow-icon" viewBox="0 0 24 24">
    <path d="M12 19V5M5 12l7-7 7 7" fill="none" stroke="currentColor" stroke-width="2" stroke-linecap="round" stroke-linejoin="round"/>
  </symbol>


</svg>

